<svg width="200" height="43" viewBox="0 0 200 43" fill="none" xmlns="http://www.w3.org/2000/svg">
<rect width="200" height="43" fill="#F5F5F5"/>
<path d="M0 2C0 0.895431 0.89543 0 2 0H198C199.105 0 200 0.895431 200 2V38C200 39.1046 199.105 40 198 40H2C0.895429 40 0 39.1046 0 38V2Z" fill="black"/>
<path d="M72.6882 14.4922H69.8885C69.8374 14.13 69.733 13.8082 69.5753 13.527C69.4176 13.2415 69.2152 12.9986 68.968 12.7983C68.7209 12.598 68.4354 12.4446 68.1115 12.3381C67.7919 12.2315 67.4446 12.1783 67.0696 12.1783C66.392 12.1783 65.8018 12.3466 65.299 12.6832C64.7962 13.0156 64.4063 13.5014 64.1293 14.1406C63.8523 14.7756 63.7138 15.5469 63.7138 16.4545C63.7138 17.3878 63.8523 18.1719 64.1293 18.8068C64.4105 19.4418 64.8026 19.9212 65.3054 20.245C65.8082 20.5689 66.3899 20.7308 67.0504 20.7308C67.4212 20.7308 67.7642 20.6818 68.0795 20.5838C68.3991 20.4858 68.6825 20.343 68.9297 20.1555C69.1768 19.9638 69.3814 19.7315 69.5433 19.4588C69.7095 19.1861 69.8246 18.875 69.8885 18.5256L72.6882 18.5384C72.6158 19.1392 72.4347 19.7188 72.1449 20.277C71.8594 20.831 71.4737 21.3274 70.9879 21.7663C70.5064 22.201 69.9311 22.5462 69.2621 22.8018C68.5973 23.0533 67.8452 23.179 67.0057 23.179C65.8381 23.179 64.794 22.9148 63.8736 22.3864C62.9574 21.858 62.233 21.093 61.7003 20.0916C61.1719 19.0902 60.9077 17.8778 60.9077 16.4545C60.9077 15.027 61.1761 13.8125 61.7131 12.8111C62.25 11.8097 62.9787 11.0469 63.8991 10.5227C64.8196 9.99432 65.8551 9.73011 67.0057 9.73011C67.7642 9.73011 68.4673 9.83665 69.1151 10.0497C69.767 10.2628 70.3445 10.5739 70.8473 10.983C71.3501 11.3878 71.7592 11.8842 72.0746 12.4723C72.3942 13.0604 72.5987 13.7337 72.6882 14.4922ZM74.6729 23V9.90909H77.4407V15.3104H83.0593V9.90909H85.8207V23H83.0593V17.5923H77.4407V23H74.6729ZM96.1886 9.90909H98.9563V18.4105C98.9563 19.3651 98.7283 20.2003 98.2724 20.9162C97.8207 21.6321 97.1879 22.1903 96.3739 22.5909C95.56 22.9872 94.6119 23.1854 93.5295 23.1854C92.4428 23.1854 91.4925 22.9872 90.6786 22.5909C89.8647 22.1903 89.2319 21.6321 88.7802 20.9162C88.3285 20.2003 88.1026 19.3651 88.1026 18.4105V9.90909H90.8704V18.174C90.8704 18.6726 90.979 19.1158 91.1964 19.5036C91.418 19.8913 91.729 20.196 92.1296 20.4176C92.5302 20.6392 92.9968 20.75 93.5295 20.75C94.0664 20.75 94.533 20.6392 94.9293 20.4176C95.3299 20.196 95.6388 19.8913 95.8562 19.5036C96.0778 19.1158 96.1886 18.6726 96.1886 18.174V9.90909ZM105.4 23V9.90909H108.167V20.718H113.779V23H105.4ZM123.698 9.90909H126.466V18.4105C126.466 19.3651 126.238 20.2003 125.782 20.9162C125.33 21.6321 124.698 22.1903 123.884 22.5909C123.07 22.9872 122.122 23.1854 121.039 23.1854C119.953 23.1854 119.002 22.9872 118.188 22.5909C117.374 22.1903 116.742 21.6321 116.29 20.9162C115.838 20.2003 115.612 19.3651 115.612 18.4105V9.90909H118.38V18.174C118.38 18.6726 118.489 19.1158 118.706 19.5036C118.928 19.8913 119.239 20.196 119.639 20.4176C120.04 20.6392 120.507 20.75 121.039 20.75C121.576 20.75 122.043 20.6392 122.439 20.4176C122.84 20.196 123.149 19.8913 123.366 19.5036C123.588 19.1158 123.698 18.6726 123.698 18.174V9.90909ZM139.693 9.90909V23H137.302L131.607 14.7607H131.511V23H128.743V9.90909H131.172L136.823 18.142H136.938V9.90909H139.693Z" fill="#FFE600"/>
<line x1="43" y1="26.5" x2="155" y2="26.5" stroke="#F0BE3D"/>
<path d="M42 31C47.5228 31 52 26.5228 52 21C52 15.4772 47.5228 11 42 11C36.4772 11 32 15.4772 32 21C32 26.5228 36.4772 31 42 31Z" fill="#F1CB60"/>
<path d="M41.5394 26.535V27.4494H42V26.0813H41.0856V26.535H41.5394ZM36.9537 21.5163H36.5V23.7988H36.9537V22.8844H37.4144V21.97H36.9537V21.5163ZM42.4606 24.2525H42.9144V25.6206H42.4606V24.2525ZM42 25.6206H42.4606V26.0813H42V25.6206ZM37.4144 25.1669H38.7894V26.535H37.4144V25.1669ZM36.5 20.6019H36.9606V21.0556H36.5V20.6019ZM39.25 19.6875H39.7106V20.1481H39.25V19.6875ZM42 19.2269H42.4606V20.1413H42V19.2269ZM36.0394 17.8588H37.4144V19.2269H36.0394V17.8588ZM40.1644 26.535H40.625V27.4494H40.1644V26.535ZM40.625 19.2269H40.1712V20.1413H40.625V19.6875H41.0856V18.7731H40.625V19.2269ZM41.0856 18.3194H41.5394V18.7731H41.0856V18.3194ZM41.0856 19.6875H41.5394V20.1413H41.0856V19.6875ZM38.7894 20.6019H40.1644V21.0556H38.7894V20.6019Z" fill="white"/>
<path d="M40.625 18.7731V18.3194H41.0788V17.8587H40.625V16.9512H39.25V17.405H40.1644V17.8587H39.7038V18.3125H39.25V18.7662H38.7962V18.3194H38.3288V17.8656H38.7894V18.3125H39.25V17.8587H38.7962V16.9512H35.125V20.1481H38.7962V19.6875H39.25V18.7731H39.7106V19.2269H40.1713V18.7731H40.625ZM37.875 19.6875H35.5856V17.405H37.875V19.6875ZM38.3288 19.6875V18.7731H38.7894V19.6875H38.3288ZM40.1644 18.3125V17.8656H40.625V18.3125H40.1644ZM43.8356 23.3381V22.8844H42.9144V21.97H42.4606V22.4237H42.0069V21.97H42.4606V20.595H41.5463V21.0556H41.0788V21.97H40.625V22.4237H41.0856V21.97H41.5394V23.3381H40.625V22.8844H40.1644V21.97H39.7106V21.5162H38.7894V21.0625H38.3288V20.6087H37.4144V21.0625H36.9538V21.5162H37.4144V21.97H37.875V21.5162H38.3356V21.97H37.875V22.4237H38.3356V22.8775H38.7894V22.4237H39.25V21.97H39.7038V22.4237H39.25V22.8775H38.7962V23.7919H39.7106V24.2525H38.7894V23.7987H38.3288V24.2525H37.4144V23.7987H36.9606V24.2525H36.5V27.4494H39.7106V24.7062H40.1644V26.0812H41.0856V25.6275H41.5463V24.7062H41.0856V24.2525H40.625V24.7062H40.1713V23.7919H41.5463V24.2456H42.0069V23.3381H42.9144V23.7987H43.375V23.3381H43.8356ZM39.25 26.9887H36.9606V24.7062H39.25V26.9887ZM39.7106 23.3381H39.25V22.8844H39.7106V23.3381ZM40.625 25.1669H41.0856V25.6206H40.625V25.1669ZM43.8356 16.9512H44.2894V17.8587H43.8356V16.9512ZM42.9144 16.9512H42.4606V18.3194H42V18.7731H42.4606V19.2269H42.9144V20.1412H43.375V19.2269H43.8356V20.1481H44.2894V19.6875H44.75V18.7731H43.8356V17.8587H42.9144V16.9512Z" fill="white"/>
<path fill-rule="evenodd" clip-rule="evenodd" d="M47.0394 21.97H46.125V22.4238H45.6644V22.8844H45.2106V21.5163H45.6644V21.0556H45.2106V21.5094H44.75V21.97H44.2894V21.0556H43.8356V21.97H43.375V22.4306L43.8356 22.4238H44.2894V23.3381H45.6644V23.7988H44.2894V24.2525H43.8356V24.7063H43.375V25.1669H43.8356V25.6206H43.375V26.0813H43.8356V26.535H44.2894V26.9888H43.8356V27.4494H47.5V24.7063H47.0394V26.9888H44.75V24.7063H46.125V22.8844H46.5856V23.3381H47.5V22.4306H47.0462V21.97H47.5V20.6019H47.0394V21.97Z" fill="white"/>
<path d="M43.375 23.7988H43.8356V24.2525H43.375V23.7988ZM45.6644 21.5163H46.125V21.97H45.6644V21.5163ZM46.5856 23.7988H47.5V24.2594H46.5856V23.7988ZM46.5856 17.8656H47.9606V19.2338H46.5856V17.8656ZM44.75 19.6875H45.2106V20.1481H44.75V19.6875ZM42.9144 20.6019H43.375V21.0556H42.9144V20.6019ZM46.125 20.6019H46.5856V21.0556H46.125V20.6019ZM45.2106 25.1669H46.5856V26.535H45.2106V25.1669ZM44.75 20.6019H45.2106V21.0556H44.75V20.6019ZM41.5394 17.8588H42V18.3194H41.5394V17.8588Z" fill="white"/>
<path d="M44.75 16.9512V17.405H45.6644V17.8587H45.2038V18.3125H44.75V17.8587H44.2894V18.3194H44.75V18.7662H45.2106V19.22H45.6713V20.1344H48.875V16.9512H44.75ZM48.4144 19.6875H46.125V17.405H48.4144V19.6875ZM38.1569 16.1469C38.4731 16.36 38.8306 16.4012 39.1125 16.415C39.3531 16.4287 39.7588 16.4287 40.185 16.4287C40.9756 16.4287 41.9038 16.4425 42 16.4425C42.2544 16.4494 43.0313 16.4494 43.7188 16.4494C44.145 16.4494 44.5438 16.4425 44.7913 16.4356C45.0731 16.4219 45.4306 16.3737 45.7469 16.1675C46.1456 15.8994 46.345 15.4594 46.345 14.8612C46.345 14.38 46.1456 14.0912 45.9806 13.9262C45.5338 13.4931 44.8463 13.5206 44.6194 13.5275H44.5919C44.4544 13.5275 43.9594 13.6031 43.375 13.9331C42.8594 14.2219 42.4125 14.6344 42.0481 15.15L42.0069 15.2531L41.9725 15.1981C41.5875 14.6206 41.0856 14.2287 40.5288 13.9125C39.9513 13.5825 39.4563 13.5137 39.3188 13.5137H39.2913C39.0644 13.5069 38.3769 13.4794 37.93 13.9125C37.6275 14.2012 37.5656 14.5794 37.5656 14.8475C37.5588 15.4387 37.7581 15.8787 38.1569 16.1469ZM43.7119 14.6069C44.2 14.325 44.5713 14.2837 44.5988 14.2837H44.6469C45.0388 14.27 45.3138 14.3319 45.4581 14.4694C45.5475 14.5587 45.5956 14.6825 45.5956 14.8612C45.5956 15.5144 45.2863 15.6587 44.7569 15.6862C44.31 15.7069 43.2719 15.7 42.5981 15.6931C42.8753 15.2457 43.2577 14.8728 43.7119 14.6069ZM38.4456 14.4487C38.5763 14.325 38.81 14.2631 39.1469 14.2631H39.3119C39.3394 14.2631 39.7106 14.3044 40.1988 14.5862C40.6388 14.8406 41.0169 15.205 41.3194 15.6725C40.6388 15.6794 39.6006 15.6862 39.1538 15.6656C38.6244 15.6381 38.315 15.4937 38.315 14.8406C38.315 14.6619 38.3563 14.5381 38.4456 14.4487ZM42.9144 26.535H42.4606V27.4494H42.9213V26.535H43.375V26.0812H42.9144V26.535Z" fill="white"/>
<line x1="55.25" y1="3" x2="55.25" y2="39" stroke="#F0BE3D" stroke-width="0.5"/>
<line x1="57.25" y1="3" x2="57.25" y2="39" stroke="#F0BE3D" stroke-width="0.5"/>
<path d="M2 1H198V-1H2V1ZM199 2V38H201V2H199ZM198 39H2V41H198V39ZM1 38V2H-1V38H1ZM2 39C1.44771 39 1 38.5523 1 38H-1C-1 39.6569 0.343143 41 2 41V39ZM199 38C199 38.5523 198.552 39 198 39V41C199.657 41 201 39.6569 201 38H199ZM198 1C198.552 1 199 1.44771 199 2H201C201 0.343147 199.657 -1 198 -1V1ZM2 -1C0.343145 -1 -1 0.343147 -1 2H1C1 1.44772 1.44772 1 2 1V-1Z" fill="black" fill-opacity="0.1"/>
</svg>
